<svg width="48" height="19" viewBox="0 0 48 19" fill="none" xmlns="http://www.w3.org/2000/svg">
<rect width="48" height="19" rx="5" fill="#6441A5"/>
<g clip-path="url(#clip0_7_295)">
<path d="M31.15 0H17.85C16.276 0 15 1.27599 15 2.85V16.15C15 17.724 16.276 19 17.85 19H31.15C32.724 19 34 17.724 34 16.15V2.85C34 1.27599 32.724 0 31.15 0Z" fill="#6441A4"/>
<path d="M19.2676 3.74805L18.4512 5.82617V14.2871H21.3457V15.8457H22.9785L24.5 14.2871H26.8379L29.9922 11.1328V3.74805H19.2676ZM28.916 10.6133L27.1348 12.3945H24.2402L22.6816 13.9531V12.3945H20.2695V4.82422H28.916V10.6133ZM27.1348 6.90234V10.0566H26.0215V6.90234H27.1348ZM24.2402 6.90234V10.0566H23.1641V6.90234H24.2402Z" fill="white"/>
</g>
<defs>
<clipPath id="clip0_7_295">
<rect width="19" height="19" fill="white" transform="translate(15)"/>
</clipPath>
</defs>
</svg>
