<svg width="25" height="25" viewBox="0 0 25 25" fill="none" xmlns="http://www.w3.org/2000/svg">
<g clip-path="url(#clip0_7_21)">
<path d="M21.25 0H3.75C1.67893 0 0 1.67893 0 3.75V21.25C0 23.3211 1.67893 25 3.75 25H21.25C23.3211 25 25 23.3211 25 21.25V3.75C25 1.67893 23.3211 0 21.25 0Z" fill="#6441A4"/>
<path d="M5.61523 4.93164L4.54102 7.66602V18.7988H8.34961V20.8496H10.498L12.5 18.7988H15.5762L19.7266 14.6484V4.93164H5.61523ZM18.3105 13.9648L15.9668 16.3086H12.1582L10.1074 18.3594V16.3086H6.93359V6.34766H18.3105V13.9648ZM15.9668 9.08203V13.2324H14.502V9.08203H15.9668ZM12.1582 9.08203V13.2324H10.7422V9.08203H12.1582Z" fill="white"/>
</g>
<defs>
<clipPath id="clip0_7_21">
<rect width="25" height="25" fill="white"/>
</clipPath>
</defs>
</svg>
